# merged terrain OBJ
v -0.355817005 -0.17784462 0
v -0.355817005 -0.17784462 0.427876405
v -0.445649164 0.170477092 0
v -0.445649164 0.170477092 0.427876405
v 0.37749186 0.0112757171 0
v 0.37749186 0.0112757171 0.427876405
v 0.287659701 0.359597429 0
v 0.287659701 0.359597429 0.427876405
v -0.946629213 -0.946629213 0
v -0.946629213 -0.946629213 0.0378651685
v -0.946629213 0.946629213 0
v -0.946629213 0.946629213 0.0378651685
v 0.946629213 -0.946629213 0
v 0.946629213 -0.946629213 0.0378651685
v 0.946629213 0.946629213 0
v 0.946629213 0.946629213 0.0378651685
f 2 4 1
f 5 2 1
f 1 4 3
f 3 5 1
f 2 8 4
f 6 2 5
f 6 8 2
f 4 8 3
f 7 5 3
f 3 8 7
f 7 6 5
f 8 6 7
f 10 12 9
f 13 10 9
f 9 12 11
f 11 13 9
f 10 16 12
f 14 10 13
f 14 16 10
f 12 16 11
f 15 13 11
f 11 16 15
f 15 14 13
f 16 14 15
